<?xml version="1.0" encoding="UTF-8" standalone="no"?>
<svg
   xmlns:dc="http://purl.org/dc/elements/1.1/"
   xmlns:cc="http://creativecommons.org/ns#"
   xmlns:rdf="http://www.w3.org/1999/02/22-rdf-syntax-ns#"
   xmlns:svg="http://www.w3.org/2000/svg"
   xmlns="http://www.w3.org/2000/svg"
   viewBox="0 0 849.08002 236.90668"
   height="236.90668"
   width="849.08002"
   xml:space="preserve"
   id="svg29"
   version="1.1"><metadata
     id="metadata35"><rdf:RDF><cc:Work
         rdf:about=""><dc:format>image/svg+xml</dc:format><dc:type
           rdf:resource="http://purl.org/dc/dcmitype/StillImage" /><dc:title></dc:title></cc:Work></rdf:RDF></metadata><defs
     id="defs33" /><g
     transform="matrix(1.3333333,0,0,-1.3333333,0,236.90667)"
     id="g37"><g
       transform="scale(0.1)"
       id="g39"><path
         id="path41"
         style="fill:#91c03b;fill-opacity:1;fill-rule:nonzero;stroke:none"
         d="m 1747.21,842.348 c 0,-28.957 -9.65,-52.364 -28.95,-70.239 -19.3,-17.871 -44.68,-26.8 -76.13,-26.8 -41.1,0 -72.19,14.48 -93.28,43.425 -13.94,18.946 -20.91,36.809 -20.91,53.614 0,7.148 4.64,12.148 13.94,15.007 l 21.45,6.438 c 4.64,1.426 8.21,2.137 10.72,2.137 5.71,0 9.65,-4.11 11.79,-12.332 8.94,-35.383 27.7,-53.067 56.29,-53.067 12.87,0 23.33,4.004 31.37,12.051 8.04,8.027 12.06,18.477 12.06,31.348 0,12.129 -3.85,23.289 -11.54,33.476 -7.69,10.18 -22.63,24.02 -44.81,41.528 l -38.53,30.66 c -35.75,28.226 -53.62,60.206 -53.62,95.946 0,27.88 9.38,50.48 28.15,67.81 18.76,17.33 42.79,26 72.1,26 33.95,0 61.29,-12.87 82.03,-38.6 14.64,-18.59 21.98,-34.31 21.98,-47.18 0,-6.79 -3.94,-11.44 -11.8,-13.94 l -26.81,-8.04 c -2.5,-0.71 -4.64,-1.07 -6.43,-1.07 -5.72,0 -10.01,3.93 -12.86,11.79 -9.66,27.88 -25.2,41.82 -46.65,41.82 -10.72,0 -19.75,-3.67 -27.07,-10.99 -7.33,-7.33 -10.99,-16.53 -10.99,-27.61 0,-19.3 13.22,-39.49 39.67,-60.581 l 26.27,-20.906 c 30.02,-23.953 49.14,-40.746 57.37,-50.398 16.79,-20.372 25.19,-44.149 25.19,-71.297" /><path
         id="path43"
         style="fill:#91c03b;fill-opacity:1;fill-rule:nonzero;stroke:none"
         d="m 1960.05,1089.49 c 0,-10.01 -5.01,-15.01 -15.01,-15.01 h -43.43 c -10.37,0 -15.55,-5.18 -15.55,-15.55 V 766.211 c 0,-3.93 -1.6,-7.422 -4.82,-10.441 -3.22,-3.051 -6.79,-4.571 -10.72,-4.571 h -28.95 c -3.94,0 -7.42,1.52 -10.46,4.571 -3.04,3.019 -4.55,6.511 -4.55,10.441 v 293.259 c 0,3.57 -1.7,6.97 -5.1,10.19 -3.4,3.21 -6.88,4.82 -10.45,4.82 h -43.43 c -3.93,0 -7.42,1.61 -10.45,4.82 -3.04,3.22 -4.56,6.79 -4.56,10.73 v 28.95 c 0,3.92 1.52,7.41 4.56,10.45 3.03,3.03 6.52,4.56 10.45,4.56 h 177.46 c 10,0 15.01,-5.01 15.01,-15.01 v -29.49" /><path
         id="path45"
         style="fill:#91c03b;fill-opacity:1;fill-rule:nonzero;stroke:none"
         d="m 2007.77,766.75 c 0,-3.93 -1.61,-7.512 -4.83,-10.719 -3.21,-3.211 -6.79,-4.832 -10.72,-4.832 h -25.19 c -3.58,0 -6.97,1.692 -10.19,5.09 -3.22,3.402 -4.82,6.891 -4.82,10.461 v 30.031 c 0,3.555 1.6,7.051 4.82,10.449 3.22,3.387 6.61,5.098 10.19,5.098 h 25.19 c 3.57,0 7.06,-1.621 10.46,-4.824 3.39,-3.223 5.09,-6.621 5.09,-10.195 V 766.75" /><path
         id="path47"
         style="fill:#91c03b;fill-opacity:1;fill-rule:nonzero;stroke:none"
         d="m 2319.24,1094.7 c 0,-3.9 -1.62,-7.34 -4.87,-10.35 -3.25,-3.01 -6.86,-4.51 -10.82,-4.51 h -86.04 c -3.97,0 -7.39,-1.71 -10.27,-5.13 -2.89,-3.41 -4.33,-7.09 -4.33,-11.03 v -69.532 c 0,-3.601 1.53,-7.011 4.59,-10.242 3.07,-3.238 6.42,-4.855 10.03,-4.855 h 73.68 c 3.97,0 7.58,-1.774 10.83,-5.309 3.25,-3.531 4.87,-7.254 4.87,-11.152 v -22.824 c 0,-3.184 -1.8,-6.457 -5.39,-9.817 -3.6,-3.367 -7,-5.043 -10.24,-5.043 h -73.29 c -3.95,0 -7.45,-1.617 -10.5,-4.843 -3.06,-3.231 -4.58,-6.817 -4.58,-10.758 V 766.801 c 0,-3.582 -1.68,-7.09 -5.05,-10.492 -3.37,-3.411 -6.82,-5.11 -10.36,-5.11 h -28.15 c -3.19,0 -6.47,1.789 -9.83,5.371 -3.37,3.571 -5.05,6.969 -5.05,10.18 v 351.69 c 0,10.36 5,15.55 15.01,15.55 h 144.22 c 10.36,0 15.54,-5.13 15.54,-15.4 v -23.89" /><path
         id="path49"
         style="fill:#91c03b;fill-opacity:1;fill-rule:nonzero;stroke:none"
         d="m 2484.9,1021.41 c 0,21.64 -4.49,36.79 -13.49,45.45 -9,8.65 -24.82,12.98 -47.48,12.98 h -6.48 c -4.32,0 -8.01,-1.53 -11.06,-4.6 -3.06,-3.06 -4.59,-6.76 -4.59,-11.09 v -86.564 c 0,-10.461 5.22,-15.688 15.65,-15.688 h 6.48 c 22.66,0 38.48,4.415 47.48,13.25 9,8.84 13.49,24.258 13.49,46.262 z m 61.11,-254.66 c 0,-1.43 0.01,-2.859 0.01,-4.289 0,-7.5 -3.54,-11.262 -10.61,-11.262 h -31.3 c -10.25,0 -16.97,5.199 -20.15,15.602 l -40.67,126.004 c -3.28,9.961 -10.01,14.945 -20.2,14.945 h -5.45 c -10.56,0 -15.84,-5.012 -15.84,-15.012 V 766.211 c 0,-10.012 -4.95,-15.012 -14.87,-15.012 h -29.22 c -9.57,0 -14.34,5 -14.34,15.012 v 352.229 c 0,3.93 1.51,7.51 4.55,10.72 3.04,3.22 6.52,4.83 10.46,4.83 h 78.27 c 72.91,0 109.37,-36.46 109.37,-109.36 0,-43.259 -13.05,-74.177 -39.14,-92.755 -8.23,-5.723 -11.08,-12.156 -8.57,-19.297 l 47.7,-145.828" /><path
         id="path51"
         style="fill:#91c03b;fill-opacity:1;fill-rule:nonzero;stroke:none"
         d="m 2697.91,904.031 -25.96,139.879 c -0.74,2.15 -1.85,3.23 -3.35,3.23 -1.49,0 -2.42,-1.23 -2.79,-3.69 l -24.93,-140.516 c -1.8,-9.297 2.69,-13.946 13.45,-13.946 H 2685 c 10.39,0 14.7,5.004 12.91,15.043 z m 86.14,-137.281 c 1.78,-10.371 -2.65,-15.551 -13.31,-15.551 h -28.21 c -9.94,0 -15.98,5.211 -18.11,15.641 l -10.99,51.933 c -2.51,10.711 -8.8,16.067 -18.83,16.067 h -51.12 c -3.95,0 -7.72,-1.703 -11.31,-5.09 -3.59,-3.379 -5.73,-7.039 -6.45,-10.957 l -10.13,-52.563 c -2.15,-10.019 -8.21,-15.031 -18.19,-15.031 h -27.82 c -9.99,0 -13.92,5.18 -11.77,15.551 l 68.09,352.77 c 1.79,9.64 7.67,14.47 17.69,14.47 h 50.93 c 10.36,0 16.62,-5.19 18.76,-15.55 l 70.77,-351.69" /><path
         id="path53"
         style="fill:#91c03b;fill-opacity:1;fill-rule:nonzero;stroke:none"
         d="m 3023.15,766.211 c 0,-3.93 -1.61,-7.422 -4.82,-10.441 -3.22,-3.051 -6.8,-4.571 -10.72,-4.571 h -28.96 c -10.01,0 -17.15,5.18 -21.44,15.551 l -83.11,199.434 c -1.42,3.57 -2.85,5.363 -4.28,5.363 -1.43,0 -2.13,-1.793 -2.13,-5.363 V 766.75 c 0,-10.371 -5.19,-15.551 -15.56,-15.551 h -28.95 c -10.01,0 -15.01,5 -15.01,15.012 v 352.229 c 0,10.36 4.97,15.55 14.93,15.55 h 28.79 c 9.97,0 17.07,-5.06 21.33,-15.16 l 83.87,-199.869 c 1.46,-3.547 2.91,-5.316 4.37,-5.316 1.46,0 2.18,1.789 2.18,5.363 v 199.432 c 0,10.36 5,15.55 15.01,15.55 h 28.96 c 10.36,0 15.54,-5.01 15.54,-15.01 V 766.211" /><path
         id="path55"
         style="fill:#91c03b;fill-opacity:1;fill-rule:nonzero;stroke:none"
         d="m 3277.8,870.219 c 0,-83.281 -35.03,-124.91 -105.08,-124.91 -40.03,0 -68.44,14.281 -85.24,42.886 -8.57,14.289 -14.12,30.91 -16.62,49.856 -1.43,11.074 -2.14,28.769 -2.14,53.082 v 106.683 c 0,26.814 0.71,45.214 2.15,55.224 2.88,20.37 9.53,37.34 19.95,50.93 18.68,23.94 45.97,35.92 81.9,35.92 32.69,0 58.38,-10.28 77.06,-30.83 18.68,-20.56 28.02,-48.88 28.02,-84.97 0,-3.94 -1.68,-7.43 -5.05,-10.46 -3.37,-3.04 -6.99,-4.56 -10.89,-4.56 h -27.09 c -9.92,0 -15.06,5 -15.41,15.02 -1.83,40.38 -17.46,60.58 -46.93,60.58 -16.38,0 -27.84,-5.63 -34.39,-16.89 -6.55,-11.26 -9.81,-30.65 -9.81,-58.17 V 883.09 c 0,-30.742 3.23,-52.188 9.7,-64.336 6.47,-12.149 17.98,-18.223 34.52,-18.223 30.19,0 45.84,23.399 46.91,70.227 0.35,10.008 5.49,15.008 15.41,15.008 h 27.09 c 10.62,0 15.94,-5.176 15.94,-15.547" /><path
         id="path57"
         style="fill:#91c03b;fill-opacity:1;fill-rule:nonzero;stroke:none"
         d="m 3382.88,765.68 c 0,-3.578 -1.71,-6.891 -5.1,-9.91 -3.4,-3.051 -6.89,-4.571 -10.46,-4.571 h -28.95 c -3.57,0 -6.97,1.43 -10.18,4.289 -3.21,2.852 -4.83,6.25 -4.83,10.192 v 353.3 c 0,10 5,15.01 15.01,15.01 h 29.49 c 3.57,0 6.97,-1.53 10.18,-4.56 3.22,-3.04 4.84,-6.34 4.84,-9.91 V 765.68" /><path
         id="path59"
         style="fill:#91c03b;fill-opacity:1;fill-rule:nonzero;stroke:none"
         d="m 3639.67,842.348 c 0,-28.957 -9.65,-52.364 -28.95,-70.239 -19.3,-17.871 -44.68,-26.8 -76.13,-26.8 -41.1,0 -72.2,14.48 -93.29,43.425 -13.93,18.946 -20.9,36.809 -20.9,53.614 0,7.148 4.64,12.148 13.94,15.007 l 21.45,6.438 c 4.63,1.426 8.21,2.137 10.72,2.137 5.71,0 9.65,-4.11 11.79,-12.332 8.93,-35.383 27.69,-53.067 56.29,-53.067 12.87,0 23.33,4.004 31.36,12.051 8.05,8.027 12.06,18.477 12.06,31.348 0,12.129 -3.84,23.289 -11.54,33.476 -7.69,10.18 -22.62,24.02 -44.8,41.528 l -38.53,30.66 c -35.75,28.226 -53.62,60.206 -53.62,95.946 0,27.88 9.37,50.48 28.14,67.81 18.76,17.33 42.79,26 72.11,26 33.95,0 61.29,-12.87 82.02,-38.6 14.65,-18.59 21.98,-34.31 21.98,-47.18 0,-6.79 -3.93,-11.44 -11.79,-13.94 l -26.81,-8.04 c -2.5,-0.71 -4.65,-1.07 -6.43,-1.07 -5.72,0 -10.01,3.93 -12.87,11.79 -9.64,27.88 -25.19,41.82 -46.64,41.82 -10.72,0 -19.75,-3.67 -27.08,-10.99 -7.32,-7.33 -10.98,-16.53 -10.98,-27.61 0,-19.3 13.22,-39.49 39.66,-60.581 l 26.27,-20.906 c 30.03,-23.953 49.15,-40.746 57.37,-50.398 16.79,-20.372 25.2,-44.149 25.2,-71.297" /><path
         id="path61"
         style="fill:#91c03b;fill-opacity:1;fill-rule:nonzero;stroke:none"
         d="m 3963.47,842.348 c 0,-28.957 -9.65,-52.364 -28.95,-70.239 -19.3,-17.871 -44.68,-26.8 -76.13,-26.8 -41.1,0 -72.2,14.48 -93.29,43.425 -13.93,18.946 -20.91,36.809 -20.91,53.614 0,7.148 4.65,12.148 13.95,15.007 l 21.44,6.438 c 4.64,1.426 8.22,2.137 10.73,2.137 5.71,0 9.65,-4.11 11.78,-12.332 8.94,-35.383 27.7,-53.067 56.3,-53.067 12.86,0 23.32,4.004 31.36,12.051 8.05,8.027 12.06,18.477 12.06,31.348 0,12.129 -3.85,23.289 -11.54,33.476 -7.69,10.18 -22.62,24.02 -44.81,41.528 l -38.52,30.66 c -35.75,28.226 -53.62,60.206 -53.62,95.946 0,27.88 9.37,50.48 28.14,67.81 18.76,17.33 42.79,26 72.11,26 33.94,0 61.29,-12.87 82.02,-38.6 14.65,-18.59 21.98,-34.31 21.98,-47.18 0,-6.79 -3.93,-11.44 -11.79,-13.94 l -26.81,-8.04 c -2.5,-0.71 -4.65,-1.07 -6.44,-1.07 -5.71,0 -10.01,3.93 -12.86,11.79 -9.65,27.88 -25.19,41.82 -46.64,41.82 -10.72,0 -19.75,-3.67 -27.08,-10.99 -7.32,-7.33 -10.98,-16.53 -10.98,-27.61 0,-19.3 13.22,-39.49 39.66,-60.581 l 26.27,-20.906 c 30.03,-23.953 49.14,-40.746 57.37,-50.398 16.79,-20.372 25.2,-44.149 25.2,-71.297" /><path
         id="path63"
         style="fill:#91c03b;fill-opacity:1;fill-rule:nonzero;stroke:none"
         d="m 4139.85,873.441 v 137.239 c 0,27.16 -3.3,46.2 -9.91,57.1 -6.62,10.9 -18.32,16.35 -35.12,16.35 -16.81,0 -28.51,-5.36 -35.12,-16.08 -6.61,-10.73 -9.91,-29.85 -9.91,-57.37 V 873.441 c 0,-27.168 3.21,-46.113 9.65,-56.836 6.42,-10.722 18.22,-16.074 35.38,-16.074 16.8,0 28.5,5.352 35.12,16.074 6.61,10.723 9.91,29.668 9.91,56.836 z m 60.05,-0.539 c 0,-41.101 -7.34,-71.297 -21.98,-90.601 -18.59,-24.66 -46.29,-36.992 -83.1,-36.992 -37.89,0 -65.41,12.332 -82.56,36.992 -14.66,21.082 -21.98,51.277 -21.98,90.601 v 138.858 c 0,40.74 7.32,71.12 21.98,91.13 17.86,24.31 45.38,36.46 82.56,36.46 38.6,0 66.29,-12.15 83.1,-36.46 14.64,-21.09 21.98,-51.46 21.98,-91.13 V 872.902" /><path
         id="path65"
         style="fill:#91c03b;fill-opacity:1;fill-rule:nonzero;stroke:none"
         d="m 4449.18,870.219 c 0,-83.281 -35.02,-124.91 -105.07,-124.91 -40.03,0 -68.45,14.281 -85.25,42.886 -8.57,14.289 -14.12,30.91 -16.62,49.856 -1.42,11.074 -2.14,28.769 -2.14,53.082 v 106.683 c 0,26.814 0.72,45.214 2.15,55.224 2.88,20.37 9.53,37.34 19.95,50.93 18.68,23.94 45.98,35.92 81.91,35.92 32.68,0 58.38,-10.28 77.06,-30.83 18.68,-20.56 28.01,-48.88 28.01,-84.97 0,-3.94 -1.68,-7.43 -5.04,-10.46 -3.37,-3.04 -7,-4.56 -10.89,-4.56 h -27.09 c -9.92,0 -15.06,5 -15.41,15.02 -1.83,40.38 -17.46,60.58 -46.94,60.58 -16.37,0 -27.83,-5.63 -34.38,-16.89 -6.55,-11.26 -9.82,-30.65 -9.82,-58.17 V 883.09 c 0,-30.742 3.24,-52.188 9.71,-64.336 6.47,-12.149 17.98,-18.223 34.51,-18.223 30.2,0 45.84,23.399 46.92,70.227 0.35,10.008 5.49,15.008 15.41,15.008 h 27.09 c 10.61,0 15.93,-5.176 15.93,-15.547" /><path
         id="path67"
         style="fill:#91c03b;fill-opacity:1;fill-rule:nonzero;stroke:none"
         d="m 4554.27,765.68 c 0,-3.578 -1.71,-6.891 -5.1,-9.91 -3.39,-3.051 -6.88,-4.571 -10.45,-4.571 h -28.95 c -3.57,0 -6.97,1.43 -10.19,4.289 -3.21,2.852 -4.82,6.25 -4.82,10.192 v 353.3 c 0,10 5,15.01 15.01,15.01 h 29.48 c 3.58,0 6.98,-1.53 10.19,-4.56 3.22,-3.04 4.83,-6.34 4.83,-9.91 V 765.68" /><path
         id="path69"
         style="fill:#91c03b;fill-opacity:1;fill-rule:nonzero;stroke:none"
         d="m 4784.25,766.059 c 0,-9.899 -5.18,-14.86 -15.54,-14.86 H 4626.1 c -10.37,0 -15.55,5 -15.55,15.012 v 352.229 c 0,3.57 1.7,7.06 5.11,10.45 3.4,3.4 6.9,5.1 10.49,5.1 h 143.03 c 10.04,0 15.07,-5.13 15.07,-15.4 v -23.89 c 0,-9.91 -4.87,-14.86 -14.61,-14.86 h -84.97 c -10.46,0 -15.68,-5.93 -15.68,-17.78 v -67.912 c 0,-10.066 5.2,-15.097 15.62,-15.097 h 71.68 c 10.06,0 15.09,-5.129 15.09,-15.395 v -23.89 c 0,-3.899 -1.54,-7.344 -4.61,-10.352 -3.06,-3.008 -6.59,-4.508 -10.55,-4.508 h -72.61 c -9.75,0 -14.62,-5.41 -14.62,-16.226 v -87.641 c 0,-10.457 4.86,-15.684 14.61,-15.684 h 84.96 c 3.96,0 7.57,-1.679 10.82,-5.039 3.24,-3.378 4.87,-7.003 4.87,-10.89 v -23.367" /><path
         id="path71"
         style="fill:#91c03b;fill-opacity:1;fill-rule:nonzero;stroke:none"
         d="m 4999.76,1089.49 c 0,-10.01 -5,-15.01 -15.01,-15.01 h -43.42 c -10.37,0 -15.54,-5.18 -15.54,-15.55 V 766.211 c 0,-3.93 -1.62,-7.422 -4.84,-10.441 -3.21,-3.051 -6.78,-4.571 -10.71,-4.571 h -28.96 c -3.93,0 -7.42,1.52 -10.45,4.571 -3.04,3.019 -4.56,6.511 -4.56,10.441 v 293.259 c 0,3.57 -1.69,6.97 -5.09,10.19 -3.4,3.21 -6.89,4.82 -10.45,4.82 h -43.43 c -3.94,0 -7.42,1.61 -10.45,4.82 -3.05,3.22 -4.56,6.79 -4.56,10.73 v 28.95 c 0,3.92 1.51,7.41 4.56,10.45 3.03,3.03 6.51,4.56 10.45,4.56 h 177.45 c 10.01,0 15.01,-5.01 15.01,-15.01 v -29.49" /><path
         id="path73"
         style="fill:#91c03b;fill-opacity:1;fill-rule:nonzero;stroke:none"
         d="m 5215.27,1118.44 -77.2,-203.182 c -3.57,-9.301 -5.36,-19.488 -5.36,-30.567 V 766.75 c 0,-3.93 -1.52,-7.512 -4.55,-10.719 -3.05,-3.211 -6.71,-4.832 -11,-4.832 h -28.41 c -10.37,0 -15.55,5 -15.55,15.012 v 118.48 c 0,10.727 -1.79,20.914 -5.36,30.567 l -75.05,202.642 c -0.72,2.15 -1.08,4.3 -1.08,6.44 0,6.43 3.57,9.65 10.73,9.65 h 35.38 c 10,0 16.43,-5.01 19.3,-15.01 l 41.82,-131.886 c 1.78,-4.649 3.56,-6.969 5.36,-6.969 1.78,0 3.39,2.496 4.83,7.508 l 42.88,131.347 c 3.57,10 10.19,15.01 19.84,15.01 h 33.77 c 7.51,0 11.26,-3.04 11.26,-9.11 0,-1.79 -0.54,-3.94 -1.61,-6.44" /><path
         id="path75"
         style="fill:#3871c1;fill-opacity:1;fill-rule:nonzero;stroke:none"
         d="m 1907.67,270.941 -43.04,231.899 c -1.24,3.551 -3.08,5.351 -5.56,5.351 -2.47,0 -4.01,-2.05 -4.62,-6.14 l -41.34,-232.942 c -2.97,-15.418 4.47,-23.109 22.3,-23.109 h 50.84 c 17.24,0 24.38,8.301 21.42,24.941 z m 142.8,-227.5894 c 2.96,-17.1914 -4.41,-25.7696 -22.07,-25.7696 h -46.77 c -16.48,0 -26.48,8.6289 -30.01,25.9063 l -18.24,86.1137 c -4.16,17.75 -14.58,26.617 -31.21,26.617 h -84.74 c -6.56,0 -12.81,-2.821 -18.75,-8.418 -5.95,-5.61 -9.51,-11.68 -10.7,-18.192 L 1771.18,42.5 c -3.55,-16.6211 -13.59,-24.918 -30.15,-24.918 h -46.12 c -16.57,0 -23.06,8.5782 -19.51,25.7696 l 112.88,584.8204 c 2.96,15.988 12.73,24 29.33,24 h 84.43 c 17.18,0 27.55,-8.59 31.11,-25.781 L 2050.47,43.3516" /><path
         id="path77"
         style="fill:#3871c1;fill-opacity:1;fill-rule:nonzero;stroke:none"
         d="m 2446.86,42.4609 c 0,-6.5195 -2.67,-12.3007 -8,-17.332 -5.33,-5.0391 -11.26,-7.5469 -17.78,-7.5469 h -47.99 c -16.6,0 -28.44,8.5782 -35.55,25.7696 L 2199.76,373.98 c -2.37,5.918 -4.74,8.879 -7.09,8.879 -2.38,0 -3.56,-2.961 -3.56,-8.879 V 43.3516 c 0,-17.1914 -8.6,-25.7696 -25.78,-25.7696 h -47.99 c -16.59,0 -24.89,8.2774 -24.89,24.8789 V 626.391 c 0,17.191 8.26,25.781 24.76,25.781 h 47.74 c 16.49,0 28.27,-8.402 35.36,-25.141 l 139.03,-331.34 c 2.42,-5.882 4.82,-8.812 7.24,-8.812 2.41,0 3.62,2.961 3.62,8.891 v 330.621 c 0,17.191 8.29,25.781 24.89,25.781 h 47.99 c 17.18,0 25.78,-8.313 25.78,-24.891 V 42.4609" /><path
         id="path79"
         style="fill:#3871c1;fill-opacity:1;fill-rule:nonzero;stroke:none"
         d="m 2638.84,41.582 c 0,-5.9336 -2.82,-11.4218 -8.45,-16.4531 -5.63,-5.0391 -11.42,-7.5469 -17.33,-7.5469 h -47.99 c -5.94,0 -11.56,2.3594 -16.9,7.1094 -5.33,4.7305 -7.99,10.3477 -7.99,16.8906 v 585.699 c 0,16.578 8.29,24.891 24.89,24.891 h 48.88 c 5.91,0 11.55,-2.543 16.88,-7.563 5.33,-5.039 8.01,-10.519 8.01,-16.437 V 41.582" /><path
         id="path81"
         style="fill:#3871c1;fill-opacity:1;fill-rule:nonzero;stroke:none"
         d="m 3194.31,42.4609 c 0,-7.1015 -2.82,-13.039 -8.45,-17.7695 -5.63,-4.75 -11.7,-7.1094 -18.22,-7.1094 h -41.77 c -16.59,0 -24.88,8.5782 -24.88,25.7696 V 451.301 c 0,4.129 -0.89,6.219 -2.67,6.219 -1.19,0 -2.37,-2.09 -3.55,-6.219 l -96,-407.9494 C 2994.61,26.1602 2984.24,17.582 2967.66,17.582 h -8.87 c -17.78,0 -28.45,8.2774 -32,24.8789 L 2831.7,452.191 c -1.19,4.141 -2.37,6.219 -3.57,6.219 -1.77,0 -2.66,-2.078 -2.66,-6.219 V 43.3516 c 0,-7.1211 -2.67,-13.1914 -8,-18.2227 -5.33,-5.0391 -11.27,-7.5469 -17.77,-7.5469 h -42.67 c -6.52,0 -12.3,2.6563 -17.33,7.9883 -5.04,5.3281 -7.55,11.25 -7.55,17.7813 V 627.281 c 0,16.578 8.3,24.891 24.91,24.891 h 93.41 c 16.6,0 26.98,-8.59 31.13,-25.75 l 76.99,-327.82 c 1.09,-4.262 2.72,-6.391 4.91,-6.391 2.15,0 3.79,2.09 4.9,6.269 l 77.2,327.989 c 4.15,17.133 14.84,25.703 32.06,25.703 h 89.92 c 17.82,0 26.73,-8.59 26.73,-25.781 V 42.4609" /><path
         id="path83"
         style="fill:#3871c1;fill-opacity:1;fill-rule:nonzero;stroke:none"
         d="m 3467.46,270.941 -43.04,231.899 c -1.24,3.551 -3.09,5.351 -5.56,5.351 -2.47,0 -4.01,-2.05 -4.62,-6.14 L 3372.9,269.109 C 3369.93,253.691 3377.37,246 3395.2,246 h 50.84 c 17.24,0 24.38,8.301 21.42,24.941 z m 142.8,-227.5894 c 2.96,-17.1914 -4.41,-25.7696 -22.07,-25.7696 h -46.77 c -16.48,0 -26.48,8.6289 -30.01,25.9063 l -18.23,86.1137 c -4.17,17.75 -14.59,26.617 -31.22,26.617 h -84.75 c -6.55,0 -12.8,-2.821 -18.74,-8.418 -5.95,-5.61 -9.51,-11.68 -10.69,-18.192 L 3330.97,42.5 c -3.55,-16.6211 -13.59,-24.918 -30.14,-24.918 h -46.13 c -16.56,0 -23.06,8.5782 -19.51,25.7696 l 112.88,584.8204 c 2.95,15.988 12.74,24 29.33,24 h 84.43 c 17.18,0 27.55,-8.59 31.1,-25.781 L 3610.26,43.3516" /><path
         id="path85"
         style="fill:#3871c1;fill-opacity:1;fill-rule:nonzero;stroke:none"
         d="m 3943.54,42.2109 c 0,-16.4296 -8.3,-24.6289 -24.88,-24.6289 h -243.53 c -16.59,0 -24.88,8.2774 -24.88,24.8789 V 626.391 c 0,17.191 8.29,25.781 24.88,25.781 h 47.11 c 17.77,0 26.66,-8.613 26.66,-25.82 V 133.16 c 0,-17.219 8,-25.808 24,-25.808 h 145.76 c 16.58,0 24.88,-8.52 24.88,-25.5317 V 42.2109" /><path
         id="path87"
         style="fill:#3871c1;fill-opacity:1;fill-rule:nonzero;stroke:none"
         d="m 4369.26,465.531 c 0,35.879 -7.46,60.989 -22.37,75.34 -14.92,14.348 -41.15,21.539 -78.71,21.539 h -10.74 c -7.16,0 -13.27,-2.551 -18.34,-7.64 -5.07,-5.079 -7.6,-11.211 -7.6,-18.379 v -143.52 c 0,-17.34 8.63,-26 25.94,-26 h 10.74 c 37.56,0 63.79,7.309 78.71,21.961 14.91,14.656 22.37,40.227 22.37,76.699 z m 101.3,-422.1794 c 0,-2.3711 0.02,-4.75 0.02,-7.1211 0,-12.4414 -5.86,-18.6485 -17.58,-18.6485 h -51.9 c -16.99,0 -28.14,8.6094 -33.41,25.8399 l -67.42,208.9101 c -5.43,16.5 -16.59,24.77 -33.49,24.77 h -9.03 c -17.5,0 -26.25,-8.313 -26.25,-24.891 V 42.4609 c 0,-16.6015 -8.22,-24.8789 -24.67,-24.8789 h -48.44 c -15.86,0 -23.77,8.2774 -23.77,24.8789 V 626.391 c 0,6.507 2.51,12.441 7.55,17.769 5.03,5.34 10.81,8.012 17.34,8.012 h 129.76 c 120.87,0 181.31,-60.453 181.31,-181.32 0,-71.704 -21.64,-122.961 -64.88,-153.762 -13.63,-9.481 -18.37,-20.141 -14.22,-31.988 l 79.08,-241.7504" /><path
         id="path89"
         style="fill:#3871c1;fill-opacity:1;fill-rule:nonzero;stroke:none"
         d="m 4821.65,42.2109 c 0,-16.4296 -8.6,-24.6289 -25.78,-24.6289 h -236.41 c -17.2,0 -25.77,8.2774 -25.77,24.8789 V 626.391 c 0,5.918 2.81,11.699 8.46,17.328 5.64,5.633 11.45,8.453 17.4,8.453 h 237.12 c 16.65,0 24.98,-8.512 24.98,-25.531 v -39.61 c 0,-16.422 -8.08,-24.621 -24.22,-24.621 h -140.86 c -17.35,0 -26.01,-9.851 -26.01,-29.5 V 420.34 c 0,-16.699 8.63,-25.02 25.91,-25.02 h 118.84 c 16.66,0 25.01,-8.519 25.01,-25.531 V 330.18 c 0,-6.469 -2.56,-12.192 -7.64,-17.168 -5.1,-4.981 -10.93,-7.473 -17.51,-7.473 h -120.36 c -16.16,0 -24.25,-8.969 -24.25,-26.898 V 133.352 c 0,-17.34 8.07,-26 24.22,-26 h 140.86 c 6.56,0 12.54,-2.801 17.93,-8.3637 5.38,-5.5899 8.08,-11.5977 8.08,-18.0469 V 42.2109" /><path
         id="path91"
         style="fill:#3871c1;fill-opacity:1;fill-rule:nonzero;stroke:none"
         d="m 5211.81,168.68 c 0,-48 -15.99,-86.8206 -48,-116.4417 -31.99,-29.6367 -74.07,-44.43752 -126.2,-44.43752 -68.14,0 -119.69,24.00002 -154.65,71.98832 -23.11,31.4019 -34.66,61.0199 -34.66,88.8909 0,11.832 7.69,20.129 23.11,24.879 l 35.55,10.66 c 7.69,2.371 13.62,3.562 17.77,3.562 9.47,0 16,-6.82 19.55,-20.449 14.81,-58.652 45.92,-87.9922 93.33,-87.9922 21.33,0 38.66,6.6602 51.99,19.9922 13.33,13.309 20,30.629 20,51.957 0,20.121 -6.39,38.633 -19.14,55.512 -12.74,16.879 -37.51,39.808 -74.28,68.84 l -63.87,50.828 c -59.27,46.801 -88.91,99.82 -88.91,159.062 0,46.207 15.56,83.688 46.67,112.418 31.11,28.731 70.95,43.11 119.54,43.11 56.28,0 101.62,-21.329 135.98,-64 24.29,-30.809 36.45,-56.879 36.45,-78.207 0,-11.27 -6.54,-18.961 -19.56,-23.102 l -44.44,-13.34 c -4.15,-1.199 -7.7,-1.781 -10.66,-1.781 -9.48,0 -16.6,6.519 -21.33,19.551 -16.01,46.218 -41.78,69.34 -77.32,69.34 -17.79,0 -32.76,-6.098 -44.9,-18.231 -12.15,-12.148 -18.21,-27.418 -18.21,-45.777 0,-31.992 21.91,-65.473 65.77,-100.43 l 43.55,-34.66 c 49.77,-39.692 81.46,-67.551 95.09,-83.543 27.86,-33.77 41.78,-73.188 41.78,-118.199" /><path
         id="path93"
         style="fill:#3871c1;fill-opacity:1;fill-rule:nonzero;stroke:none"
         d="m 5602.88,214.891 c 0,-138.0707 -58.08,-207.09022 -174.2,-207.09022 -66.37,0 -113.48,23.68752 -141.32,71.10942 -14.22,23.6918 -23.42,51.2308 -27.55,82.6598 -2.38,18.36 -3.56,47.668 -3.56,87.981 V 426.41 c 0,44.442 1.18,74.961 3.57,91.551 4.76,33.769 15.79,61.91 33.07,84.437 30.96,39.684 76.23,59.543 135.79,59.543 54.19,0 96.77,-17.031 127.74,-51.101 30.97,-34.078 46.46,-81.031 46.46,-140.879 0,-6.52 -2.8,-12.301 -8.38,-17.32 -5.58,-5.039 -11.59,-7.559 -18.05,-7.559 h -44.91 c -16.45,0 -24.96,8.289 -25.54,24.879 -3.03,66.961 -28.95,100.43 -77.81,100.43 -27.15,0 -46.15,-9.321 -57.01,-27.981 -10.86,-18.68 -16.27,-50.82 -16.27,-96.441 V 236.211 c 0,-50.949 5.36,-86.512 16.09,-106.652 10.72,-20.137 29.81,-30.2192 57.22,-30.2192 50.06,0 75.98,38.8082 77.78,116.4412 0.58,16.578 9.09,24.891 25.54,24.891 h 44.91 c 17.61,0 26.43,-8.613 26.43,-25.781" /><path
         id="path95"
         style="fill:#3871c1;fill-opacity:1;fill-rule:nonzero;stroke:none"
         d="m 6000.16,222 c 0,-74.66 -12.15,-127.4102 -36.44,-158.2109 C 5933.5,25.2813 5889.95,6.62109 5833.07,7.80078 5771.44,8.98828 5726.7,28.832 5698.86,67.3516 c -22.53,32.5781 -33.77,83.8394 -33.77,153.7574 v 405.282 c 0,17.191 8.22,25.781 24.66,25.781 h 46.68 c 17.02,0 25.54,-8.59 25.54,-25.781 V 206 c 0,-37.93 5.53,-65.191 16.65,-81.77 11.09,-16.589 29.25,-24.8902 54.45,-24.8902 25.21,0 43.2,8.1402 54.01,24.4492 10.8,16.293 16.21,43.68 16.21,82.211 v 420.391 c 0,17.191 8.5,25.781 25.53,25.781 h 45.8 c 17.03,0 25.54,-8.891 25.54,-26.672 V 222" /><path
         id="path97"
         style="fill:#3871c1;fill-opacity:1;fill-rule:nonzero;stroke:none"
         d="m 6368.11,42.2109 c 0,-16.4296 -8.59,-24.6289 -25.77,-24.6289 h -236.42 c -17.19,0 -25.77,8.2774 -25.77,24.8789 V 626.391 c 0,5.918 2.81,11.699 8.47,17.328 5.63,5.633 11.44,8.453 17.39,8.453 h 237.13 c 16.64,0 24.97,-8.512 24.97,-25.531 v -39.61 c 0,-16.422 -8.08,-24.621 -24.22,-24.621 h -140.86 c -17.34,0 -26,-9.851 -26,-29.5 V 420.34 c 0,-16.699 8.63,-25.02 25.9,-25.02 h 118.84 c 16.66,0 25.01,-8.519 25.01,-25.531 V 330.18 c 0,-6.469 -2.56,-12.192 -7.63,-17.168 -5.1,-4.981 -10.93,-7.473 -17.51,-7.473 h -120.37 c -16.16,0 -24.24,-8.969 -24.24,-26.898 V 133.352 c 0,-17.34 8.06,-26 24.22,-26 h 140.85 c 6.57,0 12.54,-2.801 17.93,-8.3637 5.39,-5.5899 8.08,-11.5977 8.08,-18.0469 V 42.2109" /><path
         id="path99"
         style="fill:#3871c1;fill-opacity:1;fill-rule:nonzero;stroke:none"
         d="M 1154.92,1.62109 C 1155.1,1.08203 1155.32,0.558594 1155.5,0 h -23.13 c -6.13,6.01953 -13.94,10.5703 -20.22,12.0703 -1.45,0.4492 -2.79,0.8203 -4.19,1.2305 -20.05,20.0078 -40.26,39.8476 -36.66,83.5195 53.44,-6.1484 56.59,-62.6211 83.62,-95.19921" /><path
         id="path101"
         style="fill:#3871c1;fill-opacity:1;fill-rule:nonzero;stroke:none"
         d="m 796.914,4.87891 c -0.957,0.62109 -1.898,1.30078 -2.832,1.96093 -2.363,1.64063 -4.687,3.33986 -6.988,5.05856 -0.496,0.3907 -1.043,0.75 -1.535,1.1329 -0.211,0.1601 -0.403,0.3203 -0.614,0.4687 -2.855,2.1797 -5.675,4.4297 -8.453,6.7383 -0.652,0.5117 -1.265,1.0312 -1.898,1.5937 -2.207,1.8164 -4.375,3.6797 -6.52,5.5782 -0.855,0.7187 -1.719,1.5 -2.578,2.2695 -2.043,1.8203 -4.078,3.6523 -6.101,5.5195 -0.657,0.6328 -1.332,1.2422 -2,1.8594 -2.629,2.4609 -5.231,4.9297 -7.825,7.4531 -0.5,0.4688 -0.992,0.9766 -1.5,1.4492 -2.156,2.1289 -4.324,4.2579 -6.468,6.3711 -0.801,0.7969 -1.598,1.5977 -2.387,2.3985 -2.047,2.0312 -4.094,4.0781 -6.129,6.1484 -0.59,0.582 -1.188,1.1797 -1.77,1.7617 -2.804,2.8711 -5.628,5.6992 -8.441,8.5391 -2.059,2.082 -4.129,4.1406 -6.199,6.2187 -0.848,0.8516 -1.711,1.7032 -2.571,2.5625 -1.839,1.8204 -3.691,3.6407 -5.554,5.4493 -0.813,0.8007 -1.625,1.6093 -2.446,2.3906 -2.593,2.5195 -5.199,5.0078 -7.839,7.4609 -0.34,0.3086 -0.668,0.5977 -0.996,0.918 -2.309,2.1211 -4.649,4.2503 -6.997,6.3403 -0.835,0.75 -1.695,1.48 -2.535,2.23 -1.996,1.738 -4.015,3.461 -6.054,5.16 -0.832,0.699 -1.661,1.399 -2.504,2.11 -2.813,2.3 -5.645,4.57 -8.551,6.769 -0.207,0.152 -0.399,0.301 -0.609,0.441 -2.7,2.04 -5.45,4.02 -8.235,5.989 -0.906,0.621 -1.84,1.23 -2.762,1.883 -2.226,1.507 -4.507,2.98 -6.793,4.437 -0.945,0.57 -1.886,1.18 -2.843,1.762 -3.176,1.969 -6.407,3.847 -9.731,5.648 C 607.441,122.031 582.234,98.1094 576.492,54.7305 581.91,16.4297 633.031,23.8086 652.969,0 h 150.824 c -0.336,0.351563 -0.703,0.660156 -1.039,1.01953 -1.977,1.26953 -3.926,2.55078 -5.84,3.85938" /><path
         id="path103"
         style="fill:#3871c1;fill-opacity:1;fill-rule:nonzero;stroke:none"
         d="M 934.441,202.121 C 880.367,214.07 826.152,201.141 808.105,149.488 784.137,80.8086 821.914,56.1992 852.191,23.1094 861.227,20.1602 870.422,18.9297 881.938,15.1992 889.27,13.4492 898.711,7.55859 905.051,0 h 134.589 c -22,75.8711 -24.53,184.301 -105.199,202.121" /><path
         id="path105"
         style="fill:#3871c1;fill-opacity:1;fill-rule:nonzero;stroke:none"
         d="m 1252.99,1431.79 c 0,0 -29.52,-4.43 -51.74,0 -43.96,8.74 -109.32,-22.84 -163.64,33.11 0,0 -238.184,113.76 -328.672,-194.39 0,0 9.07,-5.33 59.457,81.1 37.91,65.04 -12.118,-172.23 -12.118,-172.23 C 709.41,940.375 597.922,797.992 502.797,623.25 c 13.808,-54.629 36.433,-60.57 73.695,-94.77 141.246,95.18 248.18,-64.671 400.063,-21.05 108.455,108.519 156.895,339.566 52.645,494.81 2.39,39.72 9.98,74.24 42.1,84.22 v 81.1 c 5.25,19.55 24.94,47.4 89.39,68.39 0,0 127.26,28.82 92.3,195.84 z m 307.01,-197.98 -80.96,-1.45 V 78.4883 C 1479.04,35.3203 1443.72,0 1400.56,0 h -151.82 c -5.45,4.12109 -12.03,7.23047 -17.76,8.96875 -12.3,3.73045 -21.87,25.56255 -40.41,40.66015 l -1.04,-0.3086 c -29.31,40.8985 -58.28,76.5197 -55.07,142.2697 3.25,66.129 65.43,130.558 42.13,200.031 40.12,19.527 103.92,-7.512 126.33,92.731 -16.58,81.679 -74.81,81.628 -73.7,181 -45.74,-12.141 -45.57,-47.012 -67.06,-60.59 -21.46,6.609 -2.71,43.019 -38.22,60.59 C 1107.15,587.371 1021.25,578.531 1029.2,475.84 875.98,392.781 740.766,570.82 587.02,486.352 466.926,527.66 432.645,693.441 502.797,812.738 363.5,741.449 426.41,490.859 534.371,433.711 508.43,391.859 529.625,320.602 544.906,286.32 477.035,200.34 489.938,78.1484 549.465,0 H 199.766 C 169.91,0 144.125,17.082 130.875,41.7891 196.059,34.1094 270,41.8906 334.352,54.7305 357.566,6.35156 413.379,0 492.27,0 c 1.539,52.3516 -47.04,85.1211 -42.11,149.488 7.57,98.973 52.637,122.864 53.981,135.282 3.089,28.531 -1.078,117.128 -11.871,127.902 -4.973,4.988 -56.645,48.297 -63.172,84.226 C 397.512,439.051 354.723,364.059 344.871,296.879 339.07,257.25 361.84,223.73 355.398,191.59 335.016,89.8008 233.277,84.4805 121.285,100.941 V 1232.36 l -85.4608,5.21 c -43.16795,0 -48.0117,17.87 -10.7695,39.7 l 707.3903,483.18 c 37.243,21.82 98.192,21.82 135.43,0 l 702.885,-486.96 c 37.24,-21.83 32.4,-39.68 -10.76,-39.68" /></g></g></svg>